<svg xmlns="http://www.w3.org/2000/svg" viewBox="0 0 668.45 703.19"><defs><style>.cls-1,.cls-11{fill:#6f5754;}.cls-10,.cls-13,.cls-16,.cls-2,.cls-23,.cls-7{fill:none;}.cls-11,.cls-13,.cls-2{stroke:#482e12;}.cls-10,.cls-11,.cls-13,.cls-14,.cls-15,.cls-16,.cls-2,.cls-21,.cls-23,.cls-3,.cls-4,.cls-5,.cls-7,.cls-9{stroke-miterlimit:10;}.cls-10,.cls-11,.cls-14,.cls-15,.cls-16,.cls-2,.cls-21,.cls-3{stroke-width:3px;}.cls-3,.cls-4,.cls-5{fill:#fee5d4;}.cls-23,.cls-3,.cls-4,.cls-5{stroke:#fcd4ca;}.cls-13,.cls-15,.cls-23,.cls-3,.cls-4,.cls-9{stroke-linecap:round;}.cls-13,.cls-4,.cls-7{stroke-width:4px;}.cls-23,.cls-5{stroke-width:5px;}.cls-6{fill:#fff;}.cls-7,.cls-9{stroke:#231f20;}.cls-8{fill:#81c341;}.cls-9{fill:#231f20;}.cls-10{stroke:#895f25;}.cls-12{fill:#f27178;}.cls-14,.cls-15{fill:#1c6bb5;}.cls-14,.cls-15,.cls-16{stroke:#3850a3;}.cls-17{fill:#c8c9cb;}.cls-18{fill:#717375;}.cls-19{fill:#848789;}.cls-20{fill:#8f9194;}.cls-21{fill:#ef2da0;stroke:#ec008c;}.cls-22{fill:#a0a2a4;}</style></defs><g id="Layer_2" data-name="Layer 2"><g id="Layer_1-2" data-name="Layer 1"><path class="cls-1" d="M344.51,141.09C330.16,141,183.3,194.7,169,193.93c-1.43-.07-2.86-.18-4.28-.31a4.35,4.35,0,0,0-2.34-2.13l-18.9-8.28c-5.15-2.26-9.89-4.94-15.64-3.59a5.06,5.06,0,0,0-3.51,6c-5-1.06-9-3-10.72-8.21-1.92-5.9-1.32-12.52-2.29-18.61-.87-5.42-8.07-4-9.65,0-5,12.7-15.43,23.33-10.57,38.36,2.12,6.54,8.74,6.41,12.3,11.92,3.66,5.66.64,16.58.93,23.2-4.38,5.21-10,14.94-14.77,19.75-3.85,3.83,1.7,1.89,6.12.32,10.8-3.83,21.82-6.57,30.52-11.15,9.92-5.23,16.48-6.23,26.6-11.07,20.33-9.74,176.38-49.11,197.1-58C354.64,170.14,349.09,141.13,344.51,141.09Z"/><path class="cls-2" d="M101.34,115.05c-.76,5.81.66,37.93-2.19,49.14-3.89,15.31-10.25,18.53-9.55,28.67.91,13.31,11.65.95,14.33,28.27,1.69,17.29-18.39,29.54-16.33,33.05C89.85,258,221,199.49,343.82,175.94"/><path class="cls-3" d="M55,384.69l-4.77-30.17a.15.15,0,0,0-.13-.12c-2.37-.42-5-2-7.51-3.85a36.63,36.63,0,0,1-12.23-17L1.73,248.82a3.85,3.85,0,0,1,3.35-5.2,3.76,3.76,0,0,1,3.4,1.93L23,284.81A3.87,3.87,0,0,0,30.12,282L14.83,227.84c-1-4.46,6.11-8.92,8.24-3l17.4,52.56a3.88,3.88,0,0,0,7.25-2.54L32.35,221.15c-1-4.54,6.79-7,8.68-2.8l16.4,53.48c2.06,6.24,8.09,6.64,7.8,0v0l-11.58-47c-2.56-8.67,8-7.15,9.32-2.59l18.58,73.48a3.87,3.87,0,0,0,7,.93l11.56-23.62a3.87,3.87,0,0,1,7.15,2.56L92.06,333.5c-1,3.83-5,8.24-8.4,10.35l0,0a.15.15,0,0,0-.06.19l14,33.08a.16.16,0,0,1-.06.2c-2.3,1.44-39.44,7.24-42.37,7.49A.15.15,0,0,1,55,384.69Z"/><rect class="cls-4" x="230.38" y="156.01" width="62.66" height="84.27"/><path class="cls-5" d="M423.61,35.74c-1.32-9-5-18.2-13-23.32-8.32-5.34-19.5-3.86-26.9,2.39-6.3,5.32-9,13.21-8.83,21.16C345.62,8.58,287.69-1.62,226.57,13.42c-73.51,18.08-126,66.39-124.64,111.88C96.56,115.67,86.36,105.77,76,113c-5.57,3.88-8.76,11.13-11.57,17.06-3.15,6.66-5.64,13.8-5.32,21.27.64,15.08,12.42,24.84,26.71,27,12.2,1.83,30,1.47,36.06-11,29.32,27.18,87.08,37.27,148,22.28,67.89-16.7,117.85-59.17,124-101.4,4.16,1.71,9.94.77,14.32-1.46,7.82-4,13-11.89,15.09-20.26C425.75,56.6,425.06,45.7,423.61,35.74Z"/><ellipse class="cls-6" cx="163.16" cy="122.3" rx="32.91" ry="35.34"/><circle class="cls-6" cx="301.17" cy="86.96" r="41.6"/><ellipse class="cls-7" cx="163.16" cy="122.3" rx="32.91" ry="35.34"/><circle class="cls-7" cx="301.17" cy="86.96" r="41.6"/><path class="cls-8" d="M172.7,111.72c-1-2.94-5.9-8.62-9.54-9.62-3.37-.93-6.31,2.36-7.51,5.07-1.35,3,3.61,6.8,3.62,10,0,4-7.25,8.38-6.89,12.4.46,5,7.46,14.64,15.61,10.56.32-.17-1-5.81-.76-6,1.41-.57,8.7,1.46,8.71-.25,0-4.41-4.61-6.52-4.6-10.92C171.35,119.12,174,115.43,172.7,111.72Z"/><polygon class="cls-9" points="338.39 66.62 363.06 68.69 343.85 84.3 338.39 66.62"/><polygon class="cls-9" points="343.99 95.38 354.43 111.64 335.12 110.73 343.99 95.38"/><polygon class="cls-9" points="328.38 119.48 330.4 136.65 316.54 126.32 328.38 119.48"/><polygon class="cls-9" points="129.29 119.58 113.96 130.03 131.5 136.07 129.29 119.58"/><polygon class="cls-9" points="136.09 144.16 132.61 156.69 145.14 153.21 136.09 144.16"/><polygon class="cls-9" points="154.87 157.64 158.99 166.43 165.05 158.86 154.87 157.64"/><path class="cls-1" d="M115.31,164.68c-4.88-6.79-4.1-16.44-4-24.59l.42-28.42c.11-7.2-9.89-7.2-10,0-.17,11.52-.53,23-.5,34.57,0,9.72,1.44,18.63,7,26.36C112.27,178.21,119.3,170.25,115.31,164.68Z"/><line class="cls-10" x1="200.44" y1="17.24" x2="201.4" y2="34.4"/><path class="cls-1" d="M399,142.2l-1.17-22.31a4.9,4.9,0,0,0-3.93-4.66,4.66,4.66,0,0,0,1.44-4.83q-2.73-11-5.87-21.87a5.28,5.28,0,0,0,.05-1.21C388.68,74.4,383.05,61.9,379,49.74c-1.66-4.89-2.73-11.65-5.78-15.88-3.46-4.79-10.69-2.46-15.56-1.88-3.68.45-6.33,3.93-4.31,7.53a101,101,0,0,1,9.32,22.36c1.94,7,2.86,14.15,7,20.26a5.15,5.15,0,0,0,3.57,2.29,61.4,61.4,0,0,0,1.91,11.49c1.21,4.55,2.74,11.57,7.35,13.83a5.75,5.75,0,0,0,2.58.6l.69,2.72s0,.08,0,.12c-3.9.57-4.95,5.17-3.14,7.91-1.38,3,.05,7.34,4.32,7.34a5.73,5.73,0,0,0,1.35-.17L389,142.2C389.35,148.6,399.35,148.64,399,142.2Z"/><line class="cls-2" x1="111.44" y1="109.55" x2="111.71" y2="162.51"/><path class="cls-11" d="M371.88,32.38c8.51,7.78,21.09,24.9,25.71,39.75,10.13,32.51,76.26,94.91,16.11,117.42l-16.07-40.41c6,34.57,3.71,41.4-14.4,51.16-27.66,14.92-70.5,11.54-68.18,10.76,4.39-1.46,36.91-12.45,36.31-26-.41-9.14-17.83-10.84-19.91-22.3s13.68-20.7,22.3-31.46c11-13.75,18.53-40.4-1.83-97.63"/><path class="cls-11" d="M200.39,33l-97.54,83.92c-.85.72-1.71-.12-1.59-1.22,4-35.3,41.08-76.36,97.91-98.92,80.65-32,150.18-7.13,172.71,15.64,0,0-104.71,2-172.49.94"/><path class="cls-5" d="M114.55,168.91c29.33,27.18,87.09,37.28,148,22.29"/><circle class="cls-12" cx="177.65" cy="172.18" r="10.9"/><circle class="cls-12" cx="309.91" cy="147.01" r="12.26"/><line class="cls-13" x1="214.81" y1="161.76" x2="269.24" y2="151.35"/><line class="cls-2" x1="200.44" y1="17.24" x2="199.61" y2="33.43"/><path class="cls-14" d="M436.17,91.4a9.1,9.1,0,0,0-6.45-2.12,12.41,12.41,0,0,0,.84-2.73c1-5.28-2.43-11-8-11.7-3.85-.45-6.84,1.73-9.17,4.51-1.35-4.16-5.24-7.76-9.84-5.8-3.87,1.65-5.32,6.36-5.07,10.25a15.76,15.76,0,0,0,.33,2.2c-4.9-3.3-10.45-4.47-14.19,1.91-3.48,5.92-.21,9.69,4.71,12a14.12,14.12,0,0,0-3.05,1.42c-3.94,2.49-6.56,8.28-3.75,12.54,3.15,4.78,10.27,3.75,14.95,2.37,1-.29,2-.59,3-.94a13.44,13.44,0,0,0,1.27,6.06c1.9,3.8,6.23,6.74,10.61,5.68s6.09-5.85,6.18-9.83c0-.41,0-.81,0-1.22a18.38,18.38,0,0,0,1.71.89c4.69,2.15,11.55,3.49,14.55-2,2.14-4,1.11-7.23-1.51-9.83a9.11,9.11,0,0,0,2.71-1.79C439.16,100.14,439.64,94.61,436.17,91.4Z"/><circle class="cls-6" cx="409.95" cy="100.16" r="9.26"/><path class="cls-15" d="M51.93,556.33c-17.76-20.26-23.57-47.63-24-59.76-1.45-40.44,3.67-93.79,16.21-85.76l60.17-45.29,22-36.31L163.25,407q2.4,31.1,4.81,62.19l21.21,24.89L181.64,516c-2,5.89-2.56,24.43-6.34,35.26-1.91,6.51-11,14.65-20,25.6a80.09,80.09,0,0,1-25.51,20.45c-12.58-1.62-43.31-2-77.86-41Z"/><path class="cls-16" d="M116.34,405.71c10-8.54,19.48,32,22.53,45.72,4.87,22,16.06,40.93,8.18,61.55"/><path class="cls-15" d="M497.16,343.36c-7.76-8.85-22.51-20.1-36.17-26.8l-44.07-21.2a4.89,4.89,0,0,0-8,3.58l-5.93,95c-.13,2.94-2.12,8.18.82,8L528.91,389.4C532.25,389.14,514,362.49,497.16,343.36Z"/><path class="cls-15" d="M410.35,301.51l4.74,32.58a23.62,23.62,0,0,1,.06,6.45L397.91,474.18a23.29,23.29,0,0,1-1.44,5.6l-13,33a20.7,20.7,0,0,1-17,13.33L215.74,541c-9,.88-17.48-4.7-20.86-13.73L191.41,518a22.12,22.12,0,0,0-5.49-8.34L164.41,489.3a22.82,22.82,0,0,1-7-16.44l-.2-32.05A133.1,133.1,0,0,0,146,388.06L127.58,346.2c-4.3-9.77-1.4-21.46,6.85-27.61l57.24-42.68a19.67,19.67,0,0,1,9-3.73L321.1,255.13a19.16,19.16,0,0,1,10.11,1.33l66.36,27.91A21.8,21.8,0,0,1,410.35,301.51Z"/><path class="cls-14" d="M203.55,264.74c20.59-15.7,23-48.47,23.16-37.61.09,5.35,69.42,2.2,69.86-7.17.35-7.39,4.55,19.55,24.53,35.16,15.12,11.81-32.79,34.14-53.9,34.53C243.65,290.08,188,276.58,203.55,264.74Z"/><path class="cls-17" d="M310.26,681.15a3.4,3.4,0,0,1-1.83-.54L147,578.62a3.43,3.43,0,0,1,1.14-6.26l161.76-33.22a3.23,3.23,0,0,1,.69-.07,3.43,3.43,0,0,1,3.43,3.52l-.35,135.17a3.43,3.43,0,0,1-3.43,3.39Z"/><path class="cls-18" d="M310.61,541.07a1.43,1.43,0,0,1,1.43,1.47l-.35,135.21a1.43,1.43,0,0,1-1.43,1.4,1.35,1.35,0,0,1-.76-.23l-161.42-102a1.43,1.43,0,0,1,.48-2.61L310.32,541.1l.29,0m0-4a5,5,0,0,0-1.09.11L147.76,570.4a5.43,5.43,0,0,0-1.81,9.91l161.41,102a5.43,5.43,0,0,0,8.33-4.45v-.1L316,542.58a5.4,5.4,0,0,0-1.54-3.87,5.47,5.47,0,0,0-3.89-1.64Z"/><path class="cls-19" d="M312,701.19a2,2,0,0,1-1.07-.31L145.83,596.2a2,2,0,0,1-.93-1.67l-.2-18.95a2,2,0,0,1,1-1.77,2.09,2.09,0,0,1,1-.25,2,2,0,0,1,1.07.31L313.11,678.42a2,2,0,0,1,.93,1.69v19.08a2,2,0,0,1-1,1.75A1.94,1.94,0,0,1,312,701.19Z"/><path class="cls-18" d="M146.7,575.56,312,680.11v19.08L146.9,594.51l-.2-19m0-4a3.93,3.93,0,0,0-1.94.51,4,4,0,0,0-2.06,3.53l.2,18.95a4,4,0,0,0,1.86,3.34L309.9,702.57a4,4,0,0,0,2.14.62,4.05,4.05,0,0,0,1.93-.5,4,4,0,0,0,2.07-3.5V680.11a4,4,0,0,0-1.86-3.38L148.84,572.18a4,4,0,0,0-2.14-.62Z"/><path class="cls-20" d="M312.23,701.05a2,2,0,0,1-1.25-.44,2,2,0,0,1-.75-1.54L310,680.13a2,2,0,0,1,1.61-2L646,611.09a2.85,2.85,0,0,1,.4,0,2,2,0,0,1,2,2v18.14a2,2,0,0,1-1.6,2L312.63,701A1.75,1.75,0,0,1,312.23,701.05Z"/><path class="cls-18" d="M646.35,613.05v18.14L312.23,699.05,312,680.11l334.31-67.06m0-4a4.23,4.23,0,0,0-.79.08L311.25,676.19a4,4,0,0,0-3.21,4l.19,19a4,4,0,0,0,1.49,3.06,4,4,0,0,0,2.51.89,3.62,3.62,0,0,0,.8-.08l334.11-67.86a4,4,0,0,0,3.21-3.92V613.05a4,4,0,0,0-4-4Z"/><path class="cls-3" d="M292.14,487.69a17,17,0,0,1,18.44,4.25,14.49,14.49,0,0,1,1.1,1.35v0a.16.16,0,0,0,.2,0l32.25-15.86a.15.15,0,0,1,.2.05c1.57,2.22,9.43,39,9.83,41.89a.13.13,0,0,1-.11.16l-29.87,6.45a.15.15,0,0,0-.11.13c-.29,2.39-1.68,5.13-3.43,7.71a34.78,34.78,0,0,1-3.82,4.71A34.27,34.27,0,0,1,299,548.16L215,563.1a3.86,3.86,0,0,1-5.38-3.06,3.76,3.76,0,0,1,1.74-3.5l39.28-11.75c3.71-2.45,3.5-2-.76-.78l-54,15.92c-4.39,1.27-9.24-5.61-3.44-8.07l52.31-17.93c3.92-2.26,4.5-2.07.13-.9L192,551.37c-4.49,1.2-7.41-6.39-3.28-8.51l52.48-19.36c6.11-2.41,8.3-1.17,1.71-.51h0l-45.83,15.53c-8.52,3-4.18,2.24,0,0,22.37-12,43.44-30.42,66.95-40.38Z"/><path class="cls-21" d="M124.1,330.13c-4.11-4.65-10.75-7.68-17-6a10.29,10.29,0,0,0-7.37,13.3c2.1,6.46,7.71,7.84,13.06,10.19,1.15.65,4.75.89,4.38,1.74a10.94,10.94,0,0,1-3,3.79s0,0,0,0c-2.61,2.46-5.26,5-5.41,8.85-.29,7.06,7.78,11.26,13.64,12.85,1.05.29,2.29.69,3.47,1l.21.52,0,0a9.51,9.51,0,0,0-5.34,6.6c-1.45,7.23,4.69,11.28,10.36,13.79a8,8,0,0,1,2.76,1.69c.18.53.35,1.07.52,1.6a18.26,18.26,0,0,1-1.55,3.85,11.94,11.94,0,0,0-.85,8.6c2,6.63,11.74,9.18,6.73,16.84-2.06,3.16,6.94,8,8.51,11.69,1.7,4,.49,3,.54,7.85.06,5.64,8.39,10.25,8.34,3.54-.07-10.53-.42-31.29-.63-35-.41-7.08-3.74-22.55-5.64-26.29Z"/><path class="cls-21" d="M419.73,389.68a9.36,9.36,0,0,1-2,2.71l-3.15,3a2.63,2.63,0,0,1-2,.92c-1,0-2.22-.05-2.23-.07-2.41-5.76,7.79-60.91,7.73-65.65,0-.1,0-.2,0-.3-.34-2.37-4.49-31-5-34.88a2.54,2.54,0,0,1,0-.87c.73-4.69,3.41-8.7,7.54-9s8.19,3.46,9.31,8.73c1.22,5.78-1.51,8.43-3.74,11.78-.42.84-2.42,2-1.88,2.6a10.11,10.11,0,0,0,3.16,2.25l0,0c2.45,1.27,5,2.62,6.49,5.66,2.84,5.62-.26,11.22-3.06,14.09l-.19.2a3.08,3.08,0,0,0-.53,3.45l1.78,3.68a10.75,10.75,0,0,1,.64,8.17c-3.17,9.18-16.35,10.87-15.06,12.84,3.57,5.44,1.54,10.38-.81,13.95-.22.34-.4.64-.55.92a3,3,0,0,0-.24,2v0a2.9,2.9,0,0,0,.57,1.23c.47.57,1.12,1.21,1.92,2.06l0,.06a9.22,9.22,0,0,1,1.43,10.28Z"/><path class="cls-21" d="M89.53,358.84c-.8-3.93-2-11.58-8.2-10.43a5.8,5.8,0,0,0-4.42,4.1,6.19,6.19,0,0,0-.14,2.14h0a7.15,7.15,0,0,0-4.43-1.21,4.78,4.78,0,0,0-4.14,3,5.82,5.82,0,0,0-6-2,5.39,5.39,0,0,0-3.65,3.25l-.26-.27a5,5,0,0,0-7,.67c-2.09,2.75-.33,7.46.12,10.51.51,3.33,4.33,3.45,6.53,1.67a5.77,5.77,0,0,0,3.39.42,6.61,6.61,0,0,0,4.61-3.13,8.75,8.75,0,0,0,5.7.75,6.93,6.93,0,0,0,5-3.26,6.39,6.39,0,0,0,5-1.15,10.05,10.05,0,0,0,1.2-.89C85.27,364.9,90.34,362.79,89.53,358.84Z"/><path class="cls-15" d="M96.24,362.23l20.1,43.48a39.42,39.42,0,0,1-13,12.42c-7.89,4.6-15.37,5.09-20.65,5.44a56.59,56.59,0,0,1-15.16-1,52.94,52.94,0,0,1-23.41-11.79c.89-27.19-.36-49.17,4.95-44.7,10.47,8.82,44.08-3.27,43.31-7.94-.72-4.41,1.92,0,3.85,4.06Z"/><path class="cls-21" d="M336.23,523.49c-3.75,1.44-10.86,4.51-13.2-1.31a5.77,5.77,0,0,1,1.08-5.93,6.14,6.14,0,0,1,1.73-1.27h0a7.09,7.09,0,0,1-3.39-3.08,4.75,4.75,0,0,1,.28-5.09,5.83,5.83,0,0,1-4.93-4,5.39,5.39,0,0,1,.79-4.82l-.37-.07a5,5,0,0,1-3.21-6.26c1.2-3.25,6.12-4.3,8.94-5.55,3.08-1.37,5.23,1.79,4.91,4.6a5.86,5.86,0,0,1,2.18,2.64,6.64,6.64,0,0,1-.16,5.57,8.72,8.72,0,0,1,3.69,4.4,6.87,6.87,0,0,1-.06,6,6.43,6.43,0,0,1,1.69,4.8,10.76,10.76,0,0,1-.1,1.49C339.05,516.64,340,522.05,336.23,523.49Z"/><path class="cls-15" d="M328.74,480.79l40.83-25a39.38,39.38,0,0,1,13.86,11.45c5.48,7.3,6.85,14.67,7.81,19.87a56.55,56.55,0,0,1,.8,15.18,52.84,52.84,0,0,1-9,24.62c-27.1,2.29-50.87,4-45,.3,1.41-.88-15.92-42.24-15.92-42.24Z"/><path class="cls-22" d="M312.14,678.12a2,2,0,0,1-2-2l6.91-276.32a2,2,0,0,1,1.76-1.94l345.41-40.36h.23a2,2,0,0,1,1.38.55,2,2,0,0,1,.61,1.59L648.35,610a2,2,0,0,1-1.61,1.82L312.53,678.08A1.72,1.72,0,0,1,312.14,678.12Z"/><path class="cls-18" d="M664.45,359.44,646.35,609.9,312.14,676.12l6.91-276.32,345.4-40.36m0-4a3.55,3.55,0,0,0-.46,0L318.58,395.83a4,4,0,0,0-3.53,3.87L308.14,676a4,4,0,0,0,4,4.1,3.94,3.94,0,0,0,.77-.08l334.22-66.22a4,4,0,0,0,3.21-3.63l18.1-250.46a4,4,0,0,0-4-4.29Zm0,8h0Z"/><line class="cls-23" x1="399.02" y1="60.98" x2="402.23" y2="33.82"/><line class="cls-23" x1="399.02" y1="60.98" x2="407.33" y2="66.28"/><line class="cls-23" x1="91.99" y1="151.4" x2="81.08" y2="136.79"/><line class="cls-23" x1="91.99" y1="151.4" x2="88.96" y2="157.24"/><path class="cls-8" d="M312.35,75.7c-1.21-3.54-7.13-10.4-11.51-11.6-4.07-1.12-7.61,2.84-9.07,6.12-1.62,3.67,4.37,8.21,4.37,12,0,4.85-8.74,10.11-8.3,15,.55,6.08,9,17.67,18.82,12.74.39-.2-1.21-7-.91-7.24,1.7-.69,10.5,1.76,10.5-.3,0-5.32-5.55-7.86-5.54-13.18C310.71,84.63,313.89,80.19,312.35,75.7Z"/><line class="cls-2" x1="101.28" y1="116.23" x2="101.55" y2="169.19"/><path class="cls-2" d="M112.41,165.22c0,8,2.1,22.33,2.14,30.29.06,9.69,8.91,40.22-9.3,53.57"/><path class="cls-14" d="M127.47,178.14A9.19,9.19,0,0,0,121,176a12.08,12.08,0,0,0,.84-2.73c1-5.27-2.43-11-8-11.7-3.84-.45-6.83,1.73-9.17,4.52-1.35-4.17-5.24-7.76-9.84-5.8-3.87,1.64-5.31,6.35-5.06,10.25a15.61,15.61,0,0,0,.32,2.19c-4.9-3.3-10.44-4.47-14.19,1.91-3.48,5.92-.21,9.7,4.71,12.06a13.66,13.66,0,0,0-3,1.42c-3.94,2.48-6.56,8.27-3.75,12.53,3.15,4.78,10.28,3.75,15,2.37,1-.28,2-.59,3-.93a13.28,13.28,0,0,0,1.28,6c1.89,3.8,6.22,6.74,10.6,5.68s6.09-5.84,6.18-9.83c0-.41,0-.81,0-1.21.55.31,1.12.61,1.71.89,4.7,2.15,11.56,3.48,14.55-2.06,2.14-3.95,1.11-7.22-1.51-9.83A8.88,8.88,0,0,0,127.2,190C130.46,186.89,130.94,181.36,127.47,178.14Z"/><circle class="cls-6" cx="101.25" cy="186.91" r="9.26"/></g></g></svg>